# xmcd
#
# Track frame offsets: 
#        150
#        16825
#        32288
#        52279
#        66536
#        87717
#        102486
#        115543
#        138830
#        149549
#        170889
#        187928
#        204766
#        229544
#        244447
#        261477
#
# Disc length: 3888 seconds
#
# Revision: 1
# Processed by: cddbd v1.5.2PL0 Copyright (c) Steve Scherf et al.
# Submitted via: ExactAudioCopyFreeDBPlugin 1.0
#
DISCID=ea0f2e10
DTITLE=Grupa Furmana - Koncert w Stalarni
DYEAR=2004
DGENRE=Country
TTITLE0=ETZ
TTITLE1=Wiesniak
TTITLE2=Wyliczanka
TTITLE3=Sen aktora
TTITLE4=6+4
TTITLE5=Pocztowka z Rotterdamu
TTITLE6=Klopoty
TTITLE7=Zmarnowane talenty
TTITLE8=Umylem glowe plynem do podlogi
TTITLE9=110 in shade
TTITLE10=Opony
TTITLE11=Piosenka dokera
TTITLE12=I still haven't found what I'm looking for
TTITLE13=Irlandzki
TTITLE14=Modlitwa wracajacych
TTITLE15=Taki dzien taki swiat taki ja
EXTD=
EXTT0=
EXTT1=
EXTT2=
EXTT3=
EXTT4=
EXTT5=
EXTT6=
EXTT7=
EXTT8=
EXTT9=
EXTT10=
EXTT11=
EXTT12=
EXTT13=
EXTT14=
EXTT15=
PLAYORDER=
